<?xml version="1.0" encoding="UTF-8" standalone="no"?>
<!DOCTYPE svg PUBLIC "-//W3C//DTD SVG 1.1//EN" "http://www.w3.org/Graphics/SVG/1.1/DTD/svg11.dtd">
<svg xmlns="http://www.w3.org/2000/svg" version="1.1" viewBox="0 0 300 126">
<g stroke-width="2.00" fill="none" stroke-linecap="butt">
<path stroke="#808080" vector-effect="non-scaling-stroke" d="
  M 162.97 27.37
  Q 163.12 26.46 163.76 27.12
  C 170.13 33.69 173.99 27.41 180.31 29.69
  Q 182.95 30.64 183.69 27.69
  Q 184.10 26.02 185.54 25.41
  A 0.64 0.63 -28.5 0 1 186.31 25.63
  L 188.69 29.06
  Q 190.18 31.22 193.44 28.94
  C 195.42 27.55 197.32 25.34 199.32 24.62
  C 204.59 22.70 203.24 30.35 209.81 29.56
  C 214.52 29.00 216.02 25.54 216.08 21.44
  C 216.15 16.59 210.81 17.32 207.51 17.10
  C 200.57 16.63 198.59 20.85 193.69 24.19
  Q 192.11 25.26 192.00 23.25
  Q 191.76 18.68 187.73 17.39
  A 1.97 1.43 -35.5 0 0 186.76 17.38
  Q 183.13 18.29 180.56 16.94
  Q 172.56 12.73 171.94 21.70
  Q 171.71 24.98 168.70 23.67
  C 166.30 22.63 164.62 22.99 161.89 23.89
  C 154.41 26.36 156.91 19.51 155.07 16.19
  C 151.92 10.53 135.34 13.56 144.02 24.47
  Q 149.60 31.49 158.74 30.69
  Q 162.45 30.37 162.97 27.37"
/>
<path stroke="#808080" vector-effect="non-scaling-stroke" d="
  M 84.86 15.46
  Q 82.53 14.40 80.29 15.58
  Q 66.01 23.12 60.57 38.28
  Q 60.24 39.21 61.18 38.94
  L 87.02 31.51
  A 2.42 2.30 87.4 0 0 88.68 29.60
  Q 89.64 23.81 87.23 17.92
  Q 86.54 16.22 84.86 15.46"
/>
<path stroke="#808080" vector-effect="non-scaling-stroke" d="
  M 227.51 60.62
  Q 221.52 54.51 212.19 56.31
  Q 210.50 56.64 209.29 55.40
  Q 207.99 54.07 205.48 53.38
  A 1.48 1.35 -46.0 0 0 204.53 53.44
  C 201.86 54.53 199.39 55.97 196.71 56.48
  Q 187.70 58.21 180.54 52.30
  C 175.10 47.80 172.86 55.79 168.97 57.41
  C 160.81 60.82 159.22 52.09 153.00 53.00
  Q 144.76 54.21 137.09 59.65
  A 0.72 0.71 44.5 0 1 136.28 59.65
  Q 131.27 56.13 126.25 55.75
  Q 111.62 54.63 103.11 53.19
  C 92.06 51.33 114.62 35.56 116.44 34.44
  Q 123.82 29.87 127.59 22.55
  C 128.78 20.25 129.78 18.80 131.51 17.30
  Q 133.81 15.32 130.80 15.74
  C 121.98 16.99 118.97 21.01 112.58 26.08
  C 106.56 30.85 94.54 36.93 92.75 41.50
  Q 86.40 57.74 69.56 52.94
  C 64.73 51.56 55.90 48.59 54.50 55.75
  Q 53.82 59.26 55.42 61.89
  A 1.25 1.19 -6.9 0 0 56.16 62.44
  Q 64.66 64.77 73.25 66.73
  Q 76.69 67.52 75.75 70.50
  C 71.86 82.82 58.07 83.34 49.80 75.17
  Q 47.34 72.75 45.37 75.58
  C 43.13 78.81 40.34 87.61 46.50 88.75
  Q 60.67 91.36 74.43 86.77
  A 3.96 3.92 9.0 0 0 76.35 85.39
  Q 82.35 77.38 83.75 67.99
  Q 84.00 66.33 85.43 65.44
  C 93.24 60.60 99.20 62.69 107.42 64.46
  C 114.35 65.96 121.13 66.24 128.13 65.94
  C 133.03 65.72 136.32 66.23 140.27 68.39
  Q 142.09 69.38 143.82 68.26
  Q 151.37 63.39 161.11 62.96
  A 2.53 2.52 -17.4 0 1 163.34 64.12
  Q 165.58 67.59 165.75 71.08
  Q 165.94 74.68 169.54 74.79
  C 173.94 74.91 176.26 72.17 180.78 75.12
  C 182.21 76.05 184.24 75.92 183.75 73.75
  C 182.65 68.88 181.51 61.62 189.00 61.75
  Q 192.53 61.81 194.83 63.22
  A 1.09 1.08 12.2 0 1 195.33 63.99
  Q 196.33 70.99 187.93 73.36
  A 0.49 0.48 70.2 0 0 187.62 74.03
  Q 190.84 81.22 198.47 78.37
  A 1.13 1.06 -88.8 0 0 199.11 77.72
  Q 201.64 70.78 203.81 67.31
  C 205.49 64.63 211.35 59.92 214.95 61.35
  C 221.75 64.07 210.39 78.39 221.77 79.22
  C 226.08 79.54 228.39 78.88 227.57 73.83
  Q 226.86 69.44 228.75 65.45
  Q 229.52 63.82 231.30 63.57
  C 239.50 62.39 242.01 71.12 244.05 77.11
  C 245.46 81.27 250.42 83.86 252.00 78.48
  A 3.93 3.91 81.8 0 1 253.59 76.34
  Q 260.48 71.74 270.05 72.03
  Q 270.56 72.05 270.31 71.60
  Q 267.32 66.12 268.00 60.84
  C 268.48 57.20 269.56 51.82 263.31 54.56
  Q 254.17 58.57 246.02 55.30
  C 240.46 53.07 229.94 51.93 228.68 60.24
  Q 228.47 61.61 227.51 60.62"
/>
<path stroke="#808080" vector-effect="non-scaling-stroke" d="
  M 281.81 57.47
  Q 279.48 61.57 278.81 66.01
  C 278.17 70.23 275.80 69.69 273.79 72.35
  Q 271.45 75.44 276.50 75.25
  Q 291.27 74.71 289.99 60.65
  C 289.70 57.52 287.92 55.84 284.86 55.75
  Q 282.82 55.70 281.81 57.47"
/>
<path stroke="#d1cdd3" vector-effect="non-scaling-stroke" d="
  M 235.13 68.93
  C 231.95 66.64 234.85 79.18 235.00 79.77
  Q 235.51 81.70 235.79 79.72
  Q 236.48 74.84 235.59 69.75
  A 1.37 1.03 -82.1 0 0 235.13 68.93"
/>
<path stroke="#808080" vector-effect="non-scaling-stroke" d="
  M 108.77 77.48
  C 104.33 73.64 98.12 70.63 94.31 77.07
  Q 93.22 78.91 94.40 80.70
  C 97.65 85.65 107.73 89.30 109.87 81.00
  Q 110.41 78.90 108.77 77.48"
/>
<path stroke="#808080" vector-effect="non-scaling-stroke" d="
  M 141.43 85.71
  C 148.00 91.44 159.41 98.86 166.57 89.05
  Q 168.28 86.71 165.57 85.67
  Q 157.70 82.67 149.03 81.09
  Q 145.87 80.52 144.75 77.49
  Q 144.11 75.77 142.95 77.20
  Q 140.72 79.96 137.00 80.20
  Q 126.47 80.87 117.18 86.14
  A 1.06 1.00 -35.7 0 0 116.87 87.73
  L 122.79 94.15
  A 2.26 2.01 -30.4 0 0 125.16 94.62
  Q 132.40 91.86 139.11 85.74
  A 1.75 1.74 -45.6 0 1 141.43 85.71"
/>
<path stroke="#808080" vector-effect="non-scaling-stroke" d="
  M 254.54 61.73
  Q 251.03 58.88 247.93 59.68
  C 245.29 60.36 243.37 63.30 244.56 65.94
  Q 246.13 69.42 250.77 70.86
  A 1.55 1.51 43.8 0 0 251.72 70.85
  Q 256.40 69.31 256.28 65.26
  Q 256.22 63.10 254.54 61.73"
/>
<path stroke="#524d53" vector-effect="non-scaling-stroke" d="
  M 177.20 64.30
  A 1.02 1.01 -62.0 0 0 175.57 64.80
  Q 174.60 68.15 176.72 70.58
  A 1.51 1.49 -14.8 0 0 177.54 71.05
  C 182.07 71.93 178.47 65.38 177.20 64.30"
/>
</g>
<g fill="#ffffff">
<path d="
  M 0.00 0.00
  L 300.00 0.00
  L 300.00 126.00
  L 0.00 126.00
  L 0.00 0.00
  Z
  M 162.97 27.37
  Q 163.12 26.46 163.76 27.12
  C 170.13 33.69 173.99 27.41 180.31 29.69
  Q 182.95 30.64 183.69 27.69
  Q 184.10 26.02 185.54 25.41
  A 0.64 0.63 -28.5 0 1 186.31 25.63
  L 188.69 29.06
  Q 190.18 31.22 193.44 28.94
  C 195.42 27.55 197.32 25.34 199.32 24.62
  C 204.59 22.70 203.24 30.35 209.81 29.56
  C 214.52 29.00 216.02 25.54 216.08 21.44
  C 216.15 16.59 210.81 17.32 207.51 17.10
  C 200.57 16.63 198.59 20.85 193.69 24.19
  Q 192.11 25.26 192.00 23.25
  Q 191.76 18.68 187.73 17.39
  A 1.97 1.43 -35.5 0 0 186.76 17.38
  Q 183.13 18.29 180.56 16.94
  Q 172.56 12.73 171.94 21.70
  Q 171.71 24.98 168.70 23.67
  C 166.30 22.63 164.62 22.99 161.89 23.89
  C 154.41 26.36 156.91 19.51 155.07 16.19
  C 151.92 10.53 135.34 13.56 144.02 24.47
  Q 149.60 31.49 158.74 30.69
  Q 162.45 30.37 162.97 27.37
  Z
  M 84.86 15.46
  Q 82.53 14.40 80.29 15.58
  Q 66.01 23.12 60.57 38.28
  Q 60.24 39.21 61.18 38.94
  L 87.02 31.51
  A 2.42 2.30 87.4 0 0 88.68 29.60
  Q 89.64 23.81 87.23 17.92
  Q 86.54 16.22 84.86 15.46
  Z
  M 227.51 60.62
  Q 221.52 54.51 212.19 56.31
  Q 210.50 56.64 209.29 55.40
  Q 207.99 54.07 205.48 53.38
  A 1.48 1.35 -46.0 0 0 204.53 53.44
  C 201.86 54.53 199.39 55.97 196.71 56.48
  Q 187.70 58.21 180.54 52.30
  C 175.10 47.80 172.86 55.79 168.97 57.41
  C 160.81 60.82 159.22 52.09 153.00 53.00
  Q 144.76 54.21 137.09 59.65
  A 0.72 0.71 44.5 0 1 136.28 59.65
  Q 131.27 56.13 126.25 55.75
  Q 111.62 54.63 103.11 53.19
  C 92.06 51.33 114.62 35.56 116.44 34.44
  Q 123.82 29.87 127.59 22.55
  C 128.78 20.25 129.78 18.80 131.51 17.30
  Q 133.81 15.32 130.80 15.74
  C 121.98 16.99 118.97 21.01 112.58 26.08
  C 106.56 30.85 94.54 36.93 92.75 41.50
  Q 86.40 57.74 69.56 52.94
  C 64.73 51.56 55.90 48.59 54.50 55.75
  Q 53.82 59.26 55.42 61.89
  A 1.25 1.19 -6.9 0 0 56.16 62.44
  Q 64.66 64.77 73.25 66.73
  Q 76.69 67.52 75.75 70.50
  C 71.86 82.82 58.07 83.34 49.80 75.17
  Q 47.34 72.75 45.37 75.58
  C 43.13 78.81 40.34 87.61 46.50 88.75
  Q 60.67 91.36 74.43 86.77
  A 3.96 3.92 9.0 0 0 76.35 85.39
  Q 82.35 77.38 83.75 67.99
  Q 84.00 66.33 85.43 65.44
  C 93.24 60.60 99.20 62.69 107.42 64.46
  C 114.35 65.96 121.13 66.24 128.13 65.94
  C 133.03 65.72 136.32 66.23 140.27 68.39
  Q 142.09 69.38 143.82 68.26
  Q 151.37 63.39 161.11 62.96
  A 2.53 2.52 -17.4 0 1 163.34 64.12
  Q 165.58 67.59 165.75 71.08
  Q 165.94 74.68 169.54 74.79
  C 173.94 74.91 176.26 72.17 180.78 75.12
  C 182.21 76.05 184.24 75.92 183.75 73.75
  C 182.65 68.88 181.51 61.62 189.00 61.75
  Q 192.53 61.81 194.83 63.22
  A 1.09 1.08 12.2 0 1 195.33 63.99
  Q 196.33 70.99 187.93 73.36
  A 0.49 0.48 70.2 0 0 187.62 74.03
  Q 190.84 81.22 198.47 78.37
  A 1.13 1.06 -88.8 0 0 199.11 77.72
  Q 201.64 70.78 203.81 67.31
  C 205.49 64.63 211.35 59.92 214.95 61.35
  C 221.75 64.07 210.39 78.39 221.77 79.22
  C 226.08 79.54 228.39 78.88 227.57 73.83
  Q 226.86 69.44 228.75 65.45
  Q 229.52 63.82 231.30 63.57
  C 239.50 62.39 242.01 71.12 244.05 77.11
  C 245.46 81.27 250.42 83.86 252.00 78.48
  A 3.93 3.91 81.8 0 1 253.59 76.34
  Q 260.48 71.74 270.05 72.03
  Q 270.56 72.05 270.31 71.60
  Q 267.32 66.12 268.00 60.84
  C 268.48 57.20 269.56 51.82 263.31 54.56
  Q 254.17 58.57 246.02 55.30
  C 240.46 53.07 229.94 51.93 228.68 60.24
  Q 228.47 61.61 227.51 60.62
  Z
  M 281.81 57.47
  Q 279.48 61.57 278.81 66.01
  C 278.17 70.23 275.80 69.69 273.79 72.35
  Q 271.45 75.44 276.50 75.25
  Q 291.27 74.71 289.99 60.65
  C 289.70 57.52 287.92 55.84 284.86 55.75
  Q 282.82 55.70 281.81 57.47
  Z
  M 235.13 68.93
  C 231.95 66.64 234.85 79.18 235.00 79.77
  Q 235.51 81.70 235.79 79.72
  Q 236.48 74.84 235.59 69.75
  A 1.37 1.03 -82.1 0 0 235.13 68.93
  Z
  M 108.77 77.48
  C 104.33 73.64 98.12 70.63 94.31 77.07
  Q 93.22 78.91 94.40 80.70
  C 97.65 85.65 107.73 89.30 109.87 81.00
  Q 110.41 78.90 108.77 77.48
  Z
  M 141.43 85.71
  C 148.00 91.44 159.41 98.86 166.57 89.05
  Q 168.28 86.71 165.57 85.67
  Q 157.70 82.67 149.03 81.09
  Q 145.87 80.52 144.75 77.49
  Q 144.11 75.77 142.95 77.20
  Q 140.72 79.96 137.00 80.20
  Q 126.47 80.87 117.18 86.14
  A 1.06 1.00 -35.7 0 0 116.87 87.73
  L 122.79 94.15
  A 2.26 2.01 -30.4 0 0 125.16 94.62
  Q 132.40 91.86 139.11 85.74
  A 1.75 1.74 -45.6 0 1 141.43 85.71
  Z"
/>
<path d="
  M 254.54 61.73
  Q 256.22 63.10 256.28 65.26
  Q 256.40 69.31 251.72 70.85
  A 1.55 1.51 43.8 0 1 250.77 70.86
  Q 246.13 69.42 244.56 65.94
  C 243.37 63.30 245.29 60.36 247.93 59.68
  Q 251.03 58.88 254.54 61.73
  Z"
/>
</g>
<g fill="#000000">
<path d="
  M 162.97 27.37
  Q 162.45 30.37 158.74 30.69
  Q 149.60 31.49 144.02 24.47
  C 135.34 13.56 151.92 10.53 155.07 16.19
  C 156.91 19.51 154.41 26.36 161.89 23.89
  C 164.62 22.99 166.30 22.63 168.70 23.67
  Q 171.71 24.98 171.94 21.70
  Q 172.56 12.73 180.56 16.94
  Q 183.13 18.29 186.76 17.38
  A 1.97 1.43 -35.5 0 1 187.73 17.39
  Q 191.76 18.68 192.00 23.25
  Q 192.11 25.26 193.69 24.19
  C 198.59 20.85 200.57 16.63 207.51 17.10
  C 210.81 17.32 216.15 16.59 216.08 21.44
  C 216.02 25.54 214.52 29.00 209.81 29.56
  C 203.24 30.35 204.59 22.70 199.32 24.62
  C 197.32 25.34 195.42 27.55 193.44 28.94
  Q 190.18 31.22 188.69 29.06
  L 186.31 25.63
  A 0.64 0.63 -28.5 0 0 185.54 25.41
  Q 184.10 26.02 183.69 27.69
  Q 182.95 30.64 180.31 29.69
  C 173.99 27.41 170.13 33.69 163.76 27.12
  Q 163.12 26.46 162.97 27.37
  Z"
/>
<path d="
  M 84.86 15.46
  Q 86.54 16.22 87.23 17.92
  Q 89.64 23.81 88.68 29.60
  A 2.42 2.30 87.4 0 1 87.02 31.51
  L 61.18 38.94
  Q 60.24 39.21 60.57 38.28
  Q 66.01 23.12 80.29 15.58
  Q 82.53 14.40 84.86 15.46
  Z"
/>
<path d="
  M 227.51 60.62
  Q 228.47 61.61 228.68 60.24
  C 229.94 51.93 240.46 53.07 246.02 55.30
  Q 254.17 58.57 263.31 54.56
  C 269.56 51.82 268.48 57.20 268.00 60.84
  Q 267.32 66.12 270.31 71.60
  Q 270.56 72.05 270.05 72.03
  Q 260.48 71.74 253.59 76.34
  A 3.93 3.91 81.8 0 0 252.00 78.48
  C 250.42 83.86 245.46 81.27 244.05 77.11
  C 242.01 71.12 239.50 62.39 231.30 63.57
  Q 229.52 63.82 228.75 65.45
  Q 226.86 69.44 227.57 73.83
  C 228.39 78.88 226.08 79.54 221.77 79.22
  C 210.39 78.39 221.75 64.07 214.95 61.35
  C 211.35 59.92 205.49 64.63 203.81 67.31
  Q 201.64 70.78 199.11 77.72
  A 1.13 1.06 -88.8 0 1 198.47 78.37
  Q 190.84 81.22 187.62 74.03
  A 0.49 0.48 70.2 0 1 187.93 73.36
  Q 196.33 70.99 195.33 63.99
  A 1.09 1.08 12.2 0 0 194.83 63.22
  Q 192.53 61.81 189.00 61.75
  C 181.51 61.62 182.65 68.88 183.75 73.75
  C 184.24 75.92 182.21 76.05 180.78 75.12
  C 176.26 72.17 173.94 74.91 169.54 74.79
  Q 165.94 74.68 165.75 71.08
  Q 165.58 67.59 163.34 64.12
  A 2.53 2.52 -17.4 0 0 161.11 62.96
  Q 151.37 63.39 143.82 68.26
  Q 142.09 69.38 140.27 68.39
  C 136.32 66.23 133.03 65.72 128.13 65.94
  C 121.13 66.24 114.35 65.96 107.42 64.46
  C 99.20 62.69 93.24 60.60 85.43 65.44
  Q 84.00 66.33 83.75 67.99
  Q 82.35 77.38 76.35 85.39
  A 3.96 3.92 9.0 0 1 74.43 86.77
  Q 60.67 91.36 46.50 88.75
  C 40.34 87.61 43.13 78.81 45.37 75.58
  Q 47.34 72.75 49.80 75.17
  C 58.07 83.34 71.86 82.82 75.75 70.50
  Q 76.69 67.52 73.25 66.73
  Q 64.66 64.77 56.16 62.44
  A 1.25 1.19 -6.9 0 1 55.42 61.89
  Q 53.82 59.26 54.50 55.75
  C 55.90 48.59 64.73 51.56 69.56 52.94
  Q 86.40 57.74 92.75 41.50
  C 94.54 36.93 106.56 30.85 112.58 26.08
  C 118.97 21.01 121.98 16.99 130.80 15.74
  Q 133.81 15.32 131.51 17.30
  C 129.78 18.80 128.78 20.25 127.59 22.55
  Q 123.82 29.87 116.44 34.44
  C 114.62 35.56 92.06 51.33 103.11 53.19
  Q 111.62 54.63 126.25 55.75
  Q 131.27 56.13 136.28 59.65
  A 0.72 0.71 44.5 0 0 137.09 59.65
  Q 144.76 54.21 153.00 53.00
  C 159.22 52.09 160.81 60.82 168.97 57.41
  C 172.86 55.79 175.10 47.80 180.54 52.30
  Q 187.70 58.21 196.71 56.48
  C 199.39 55.97 201.86 54.53 204.53 53.44
  A 1.48 1.35 -46.0 0 1 205.48 53.38
  Q 207.99 54.07 209.29 55.40
  Q 210.50 56.64 212.19 56.31
  Q 221.52 54.51 227.51 60.62
  Z
  M 254.54 61.73
  Q 251.03 58.88 247.93 59.68
  C 245.29 60.36 243.37 63.30 244.56 65.94
  Q 246.13 69.42 250.77 70.86
  A 1.55 1.51 43.8 0 0 251.72 70.85
  Q 256.40 69.31 256.28 65.26
  Q 256.22 63.10 254.54 61.73
  Z
  M 177.20 64.30
  A 1.02 1.01 -62.0 0 0 175.57 64.80
  Q 174.60 68.15 176.72 70.58
  A 1.51 1.49 -14.8 0 0 177.54 71.05
  C 182.07 71.93 178.47 65.38 177.20 64.30
  Z"
/>
<path d="
  M 281.81 57.47
  Q 282.82 55.70 284.86 55.75
  C 287.92 55.84 289.70 57.52 289.99 60.65
  Q 291.27 74.71 276.50 75.25
  Q 271.45 75.44 273.79 72.35
  C 275.80 69.69 278.17 70.23 278.81 66.01
  Q 279.48 61.57 281.81 57.47
  Z"
/>
<path d="
  M 108.77 77.48
  Q 110.41 78.90 109.87 81.00
  C 107.73 89.30 97.65 85.65 94.40 80.70
  Q 93.22 78.91 94.31 77.07
  C 98.12 70.63 104.33 73.64 108.77 77.48
  Z"
/>
<path d="
  M 141.43 85.71
  A 1.75 1.74 -45.6 0 0 139.11 85.74
  Q 132.40 91.86 125.16 94.62
  A 2.26 2.01 -30.4 0 1 122.79 94.15
  L 116.87 87.73
  A 1.06 1.00 -35.7 0 1 117.18 86.14
  Q 126.47 80.87 137.00 80.20
  Q 140.72 79.96 142.95 77.20
  Q 144.11 75.77 144.75 77.49
  Q 145.87 80.52 149.03 81.09
  Q 157.70 82.67 165.57 85.67
  Q 168.28 86.71 166.57 89.05
  C 159.41 98.86 148.00 91.44 141.43 85.71
  Z"
/>
</g>
<g fill="#a39aa6">
<path d="
  M 177.20 64.30
  C 178.47 65.38 182.07 71.93 177.54 71.05
  A 1.51 1.49 -14.8 0 1 176.72 70.58
  Q 174.60 68.15 175.57 64.80
  A 1.02 1.01 -62.0 0 1 177.20 64.30
  Z"
/>
<path d="
  M 235.00 79.77
  C 234.85 79.18 231.95 66.64 235.13 68.93
  A 1.37 1.03 -82.1 0 1 235.59 69.75
  Q 236.48 74.84 235.79 79.72
  Q 235.51 81.70 235.00 79.77
  Z"
/>
</g>
</svg>
