<svg xmlns="http://www.w3.org/2000/svg" version="1.1" viewBox="0 0 300 126">
  <g stroke="#808080" stroke-width="2.00" fill="none" stroke-linecap="butt">
    <path d="M163 27 Q163 26 164 27 Q171 34 174 27 Q183 28 184 25 Q184 26 186 26 L189 29 Q190 31 193 29 Q195 28 197 25 C204 23 204 30 210 30 C215 30 216 26 216 21 C216 17 211 17 208 17 C201 17 199 21 194 24 Q192 25 192 23 Q191 19 188 17 Q183 18 181 17 Q173 13 172 22 Q171 25 169 24 C166 23 165 23 162 24 C154 26 157 20 155 16 C152 11 135 14 144 24 Q150 31 159 31 Q162 30 163 27" />
    <path d="M85 15 Q83 14 80 16 Q66 23 61 38 Q60 39 61 39 L87 32 Q89 24 87 18 Q86 16 85 15" />
    <path d="M228 61 Q222 55 212 56 Q211 57 209 55 Q208 54 205 53 Q202 55 197 56 Q188 58 181 52 C175 48 173 56 169 57 C161 61 159 52 153 53 Q145 54 137 60 Q131 56 126 56 Q112 55 103 53 C92 51 115 36 116 34 Q124 30 128 23 C129 20 130 19 132 17 Q134 15 131 16 C122 17 119 21 113 26 C107 31 95 37 93 42 Q86 58 70 53 C65 52 56 49 55 56 Q54 59 55 62 Q65 65 73 67 Q77 68 76 71 C72 83 58 83 50 75 Q47 73 45 76 C43 79 40 88 46 89 Q61 91 74 87 A4 4 9 0 0 76 85 Q82 77 84 68 Q84 66 85 65 C93 61 99 63 107 64 C114 66 121 66 128 66 C133 66 136 66 140 68 Q142 69 144 68 Q151 63 161 63 A3 3 0 0 1 163 64 Q166 68 166 71 Q166 75 170 75 C174 75 176 72 181 75 C182 76 184 76 184 74 C183 69 182 62 189 62 Q193 62 195 63 A1 1 0 0 1 196 64 Q196 71 188 73 Q191 81 198 78 A1 1 0 0 1 201 76 Q204 77 204 79 C204 84 202 87 198 89 C196 90 193 91 193 93 C194 96 200 97 202 95 C203 94 204 94 206 94 C208 94 210 93 211 92 C216 86 215 98 222 97 C230 97 230 83 231 78 C232 74 232 69 233 65 C234 61 233 56 233 52 C233 47 232 42 231 38 C230 33 226 28 222 25 Q218 21 218 18 Q217 13 211 14 Q204 13 200 14 Q194 13 191 10 Q188 7 185 9 Q178 10 177 9 Q177 8 176 7 Q169 4 163 6 Q153 10 150 7 Q149 5 145 4 Q140 1 137 3 Q132 4 131 0 Q131 -5 125 -3 Q119 -2 116 0 C105 6 107 20 96 26 C92 27 86 29 80 30 C72 31 72 35 67 39 Q57 47 65 51 C69 53 70 55 72 61 Q76 69 82 73 C90 79 98 77 107 74 Q112 73 113 76 Q113 79 115 83 C117 89 121 94 124 100 C127 107 130 116 138 121 C144 125 151 126 155 126 C166 126 175 122 183 117 C193 110 195 107 199 103 C202 99 203 94 205 90 C208 83 208 77 215 77 Q218 77 219 78 Q224 80 225 74 C225 71 225 68 228 61" />
  </g>
</svg>
